<svg width="60" height="59" viewBox="0 0 60 59" fill="none" xmlns="http://www.w3.org/2000/svg">
<path d="M11.1305 42.6806C13.4372 40.3739 16.6428 39.8396 18.2905 41.4872C19.9381 43.1349 19.4039 46.3405 17.0971 48.6472C14.7904 50.954 0.987106 58.7906 0.987106 58.7906C0.987106 58.7906 8.82381 44.9873 11.1305 42.6806Z" fill="#F17F00"/>
<path d="M14.4124 14.9359C15.8953 16.4188 18.2995 16.4188 19.7824 14.9359C21.2653 13.453 21.2653 11.0488 19.7824 9.56591C18.2995 8.08301 15.8953 8.08301 14.4124 9.56591C12.9295 11.0488 12.9295 13.453 14.4124 14.9359Z" fill="#FFD85A"/>
<path d="M29.9258 30.449C31.4087 31.9319 33.813 31.9319 35.2958 30.449C36.7787 28.9661 36.7787 26.5619 35.2958 25.079C33.813 23.5961 31.4087 23.5961 29.9258 25.079C28.4429 26.5619 28.443 28.9661 29.9258 30.449Z" fill="#FFD85A"/>
<path d="M53.1961 7.17901C54.679 8.66191 57.0832 8.66191 58.5661 7.17901C60.049 5.69611 60.049 3.29191 58.5661 1.80901C57.0832 0.326113 54.679 0.326113 53.1961 1.80901C51.7132 3.29191 51.7132 5.69611 53.1961 7.17901Z" fill="#FFD85A"/>
<path d="M12.6224 34.6258C14.1053 36.1087 16.5095 36.1087 17.9924 34.6258C19.4753 33.1429 19.4753 30.7387 17.9924 29.2558C16.5095 27.7729 14.1053 27.7729 12.6224 29.2558C11.1395 30.7387 11.1395 33.1429 12.6224 34.6258Z" fill="#FFD85A"/>
<path d="M44.8428 45.366C46.3257 46.8489 48.7299 46.8489 50.2128 45.366C51.6957 43.8831 51.6957 41.4789 50.2128 39.996C48.73 38.5131 46.3257 38.5131 44.8428 39.996C43.3599 41.4789 43.3599 43.8831 44.8428 45.366Z" fill="#FFD85A"/>
<path d="M25.1529 47.1561C26.6358 48.639 29.04 48.639 30.5229 47.1561C32.0058 45.6732 32.0058 43.269 30.5229 41.7861C29.04 40.3032 26.6358 40.3032 25.1529 41.7861C23.67 43.269 23.67 45.6732 25.1529 47.1561Z" fill="#FFD85A"/>
<path d="M16.947 12.4136L55.8092 4.47931" stroke="#FFD85A" stroke-width="1.5"/>
<path d="M47.3643 43.1263L55.8823 4.33331" stroke="#FFD85A" stroke-width="1.5"/>
<path d="M17.4923 11.7975L15.4653 32.0154" stroke="#FFD85A" stroke-width="1.5"/>
<path d="M15.1289 31.8053L33.0291 27.4134" stroke="#FFD85A" stroke-width="1.5"/>
<path d="M32.9075 27.2414L27.9373 44.8399" stroke="#FFD85A"/>
<path d="M27.7678 44.1781L47.8194 42.3004" stroke="#FFD85A" stroke-width="1.5"/>
<path d="M27.4042 44.6991L16.9763 12.0126" stroke="#FFD85A" stroke-width="1.5"/>
<path d="M47.6683 42.6962L15.0867 32.6573" stroke="#FFD85A" stroke-width="1.5"/>
<path d="M32.3218 27.5941L55.8711 4.35861" stroke="#FFD85A" stroke-width="1.5"/>
</svg>
