<?xml version="1.0" encoding="UTF-8" standalone="no"?>
<svg
   width="75"
   height="75"
   viewBox="0 0 75 75"
   fill="none"
   version="1.1"
   id="svg15"
   xmlns="http://www.w3.org/2000/svg"
   xmlns:svg="http://www.w3.org/2000/svg">
  <path
     d="M 0,18.75 C 0,8.39466 8.3947,0 18.75,0 h 37.5 C 66.6053,0 75,8.39466 75,18.75 v 37.5 C 75,66.6053 66.6053,75 56.25,75 H 18.75 C 8.3947,75 0,66.6053 0,56.25 Z"
     fill="#1868db"
     id="path14" />
  <g
     clip-path="url(#clip0_55714_36330)"
     id="g15"
     transform="translate(-33)">
    <path
       d="M 61.0429,48.5103 H 56.817 c -6.3736,0 -10.9459,-3.9039 -10.9459,-9.6203 h 22.7231 c 1.1778,0 1.9398,0.8365 1.9398,2.0216 v 22.8657 c -5.6808,0 -9.4911,-4.601 -9.4911,-11.0145 z M 72.266,37.1472 H 68.04 c -6.3736,0 -10.9459,-3.8342 -10.9459,-9.5507 h 22.7231 c 1.1778,0 2.0091,0.7669 2.0091,1.952 v 22.8657 c -5.6808,0 -9.5603,-4.601 -9.5603,-11.0146 z M 83.5582,25.8537 h -4.2259 c -6.3736,0 -10.9459,-3.9039 -10.9459,-9.6203 h 22.7231 c 1.1778,0 1.9398,0.8365 1.9398,1.9519 v 22.8658 c -5.6808,0 -9.4911,-4.6011 -9.4911,-11.0146 z"
       fill="#ffffff"
       id="path15" />
  </g>
  <defs
     id="defs15">
    <clipPath
       id="clip0_55714_36330">
      <rect
         width="47.1782"
         height="47.5439"
         fill="#ffffff"
         transform="translate(45.8711,16.2344)"
         id="rect15"
         x="0"
         y="0" />
    </clipPath>
  </defs>
</svg>
