<?xml version="1.0" encoding="UTF-8" standalone="no"?>
<svg
   height="12"
   style="line-height:1"
   viewBox="0 0 24 12"
   width="24"
   version="1.1"
   id="svg2"
   sodipodi:docname="langchain.svg"
   inkscape:export-filename="langchain2.svg"
   inkscape:export-xdpi="96"
   inkscape:export-ydpi="96"
   inkscape:version="1.3.2 (091e20e, 2023-11-25)"
   xmlns:inkscape="http://www.inkscape.org/namespaces/inkscape"
   xmlns:sodipodi="http://sodipodi.sourceforge.net/DTD/sodipodi-0.dtd"
   xmlns="http://www.w3.org/2000/svg"
   xmlns:svg="http://www.w3.org/2000/svg"
   xmlns:rdf="http://www.w3.org/1999/02/22-rdf-syntax-ns#"
   xmlns:cc="http://creativecommons.org/ns#"
   xmlns:dc="http://purl.org/dc/elements/1.1/">
  <defs
     id="defs2" />
  <sodipodi:namedview
     id="namedview2"
     pagecolor="#ffffff"
     bordercolor="#000000"
     borderopacity="0.25"
     inkscape:showpageshadow="2"
     inkscape:pageopacity="0.0"
     inkscape:pagecheckerboard="0"
     inkscape:deskcolor="#d1d1d1"
     inkscape:zoom="24.291667"
     inkscape:cx="12"
     inkscape:cy="5.9897084"
     inkscape:window-width="1392"
     inkscape:window-height="1212"
     inkscape:window-x="418"
     inkscape:window-y="105"
     inkscape:window-maximized="0"
     inkscape:current-layer="svg2" />
  <title
     id="title1">LangChain</title>
  <path
     d="M 8.373,8.502 C 8.386,8.442 8.397,8.384 8.411,8.332 L 8.472,8.477 C 8.587,8.757 8.701,9.034 8.978,9.191 8.966,9.445 8.644,9.548 8.426,9.517 8.378,9.403 8.311,9.289 8.171,9.353 8.028,9.409 7.871,9.343 7.905,9.168 8.238,9.156 8.312,8.797 8.373,8.502 Z M 18.385,3.245 c -0.318,0 -0.616,0.122 -0.839,0.342 l -0.902,0.887 c -0.243,0.24 -0.368,0.572 -0.343,0.913 l 0.006,0.056 c 0.032,0.262 0.149,0.498 0.337,0.682 0.13,0.128 0.273,0.21 0.447,0.266 A 0.866,0.866 0 0 1 16.844,7.168 L 16.788,7.223 A 2.022,2.022 0 0 1 15.433,5.668 l -0.01,-0.057 -0.046,0.037 c -0.03,0.024 -0.06,0.05 -0.088,0.078 l -0.902,0.887 a 1.156,1.156 0 0 0 0,1.65 c 0.231,0.228 0.535,0.342 0.84,0.342 0.304,0 0.607,-0.114 0.838,-0.341 l 0.902,-0.888 a 1.156,1.156 0 0 0 -0.436,-1.921 0.953,0.953 0 0 1 0.276,-0.842 2.062,2.062 0 0 1 1.371,1.57 l 0.01,0.057 0.047,-0.037 c 0.03,-0.024 0.06,-0.05 0.088,-0.078 l 0.902,-0.888 a 1.155,1.155 0 0 0 0,-1.65 1.188,1.188 0 0 0 -0.84,-0.342 z"
     fill="#1c3c3c"
     id="path1" />
  <path
     clip-rule="evenodd"
     d="M 17.901,0 H 6.1 C 2.736,0 0,2.692 0,6 0,9.308 2.736,12 6.099,12 H 17.9 C 21.264,12 24,9.308 24,6 24,2.692 21.264,0 17.901,0 Z M 12.08,9.407 c -0.195,0.04 -0.414,0.047 -0.562,-0.106 -0.045,0.1 -0.136,0.077 -0.221,0.056 A 0.797,0.797 0 0 0 11.236,9.343 C 11.226,9.368 11.219,9.391 11.21,9.416 10.881,9.437 10.635,9.107 10.478,8.858 A 4.991,4.991 0 0 0 10.005,8.648 C 9.833,8.578 9.66,8.508 9.496,8.418 A 2.218,2.218 0 0 0 9.492,8.591 C 9.49,8.835 9.488,9.094 9.265,9.242 9.258,9.537 9.501,9.534 9.741,9.532 9.948,9.529 10.151,9.527 10.188,9.716 a 0.485,0.485 0 0 1 -0.05,0.003 c -0.046,0 -0.092,0 -0.127,0.034 C 9.894,9.864 9.769,9.816 9.639,9.766 9.519,9.72 9.396,9.672 9.272,9.746 A 2.318,2.318 0 0 0 9.01,9.9 0.97,0.97 0 0 1 8.462,10.094 C 8.438,10.058 8.448,10.035 8.468,10.014 A 0.562,0.562 0 0 0 8.511,9.958 C 8.53,9.93 8.546,9.901 8.562,9.874 8.616,9.779 8.665,9.694 8.804,9.654 8.619,9.625 8.46,9.709 8.304,9.791 L 8.3,9.793 A 4.21,4.21 0 0 1 8.235,9.827 C 8.138,9.867 8.081,9.836 8.023,9.804 7.941,9.759 7.855,9.712 7.647,9.844 7.607,9.812 7.627,9.783 7.649,9.758 7.74,9.649 7.859,9.633 7.994,9.639 7.643,9.446 7.39,9.583 7.184,9.694 7.002,9.792 6.857,9.87 6.713,9.682 6.648,9.699 6.611,9.745 6.575,9.79 6.56,9.81 6.545,9.828 6.528,9.845 6.493,9.806 6.501,9.762 6.51,9.717 L 6.515,9.691 A 0.242,0.242 0 0 0 6.518,9.661 L 6.491,9.651 C 6.438,9.629 6.386,9.607 6.401,9.527 6.284,9.487 6.201,9.557 6.115,9.621 6.061,9.58 6.105,9.526 6.147,9.476 A 0.279,0.279 0 0 0 6.192,9.411 C 6.23,9.346 6.295,9.344 6.358,9.342 6.412,9.341 6.466,9.339 6.503,9.3 6.636,9.225 6.8,9.264 6.965,9.303 7.086,9.331 7.207,9.36 7.319,9.345 7.522,9.37 7.773,9.165 7.671,8.96 7.485,8.727 7.487,8.432 7.488,8.147 V 8.004 C 7.472,7.896 7.316,7.771 7.16,7.646 7.04,7.551 6.92,7.455 6.862,7.366 6.702,7.189 6.577,6.984 6.453,6.781 L 6.438,6.757 C 6.226,6.353 6.141,5.897 6.056,5.442 5.953,4.896 5.851,4.352 5.53,3.902 5.264,4.046 4.918,3.977 4.689,3.784 4.569,3.891 4.559,4.031 4.551,4.18 L 4.55,4.194 C 4.253,3.902 4.29,3.35 4.527,3.024 4.624,2.896 4.74,2.791 4.869,2.698 4.899,2.677 4.909,2.656 4.908,2.624 5.143,1.584 6.744,1.785 7.25,2.521 c 0.167,0.206 0.281,0.442 0.395,0.678 0.137,0.283 0.273,0.566 0.5,0.795 0.22,0.237 0.452,0.463 0.684,0.689 0.359,0.35 0.718,0.699 1.032,1.089 0.49,0.587 0.839,1.276 1.144,1.97 0.05,0.092 0.08,0.193 0.11,0.293 0.044,0.15 0.089,0.299 0.2,0.417 0.026,0.035 0.084,0.088 0.149,0.148 0.156,0.143 0.357,0.328 0.289,0.409 0.009,0.019 0.027,0.04 0.05,0.06 0.032,0.028 0.074,0.058 0.116,0.088 0.122,0.087 0.25,0.178 0.16,0.25 z m 7.778,-3.545 -0.902,0.887 c -0.24,0.237 -0.537,0.413 -0.859,0.51 L 18.08,7.264 18.074,7.279 A 2.021,2.021 0 0 1 17.6,8 l -0.902,0.888 c -0.393,0.387 -0.916,0.6 -1.474,0.6 -0.557,0 -1.08,-0.213 -1.474,-0.6 a 2.03,2.03 0 0 1 0,-2.9 L 14.652,5.1 C 14.894,4.862 15.183,4.691 15.511,4.592 L 15.527,4.588 15.533,4.572 C 15.638,4.3 15.798,4.056 16.008,3.848 L 16.91,2.961 c 0.393,-0.387 0.917,-0.6 1.474,-0.6 0.558,0 1.08,0.213 1.474,0.6 0.394,0.387 0.61,0.902 0.61,1.45 0,0.549 -0.216,1.064 -0.61,1.45 z"
     fill="#1c3c3c"
     fill-rule="evenodd"
     id="path2"
     inkscape:export-filename="../../../../../Downloads/path2.svg"
     inkscape:export-xdpi="96"
     inkscape:export-ydpi="96" />
  <metadata
     id="metadata2">
    <rdf:RDF>
      <cc:Work
         rdf:about="">
        <dc:title>LangChain</dc:title>
      </cc:Work>
    </rdf:RDF>
  </metadata>
</svg>
