<?xml version="1.0" encoding="UTF-8" standalone="no"?>
<svg
   id="Layer_1"
   version="1.1"
   viewBox="0 0 162.81425 210.62428"
   sodipodi:docname="llama.cpp.svg"
   width="162.81425"
   height="210.62428"
   xmlns:inkscape="http://www.inkscape.org/namespaces/inkscape"
   xmlns:sodipodi="http://sodipodi.sourceforge.net/DTD/sodipodi-0.dtd"
   xmlns="http://www.w3.org/2000/svg"
   xmlns:svg="http://www.w3.org/2000/svg">
  <sodipodi:namedview
     id="namedview7"
     pagecolor="#ffffff"
     bordercolor="#000000"
     borderopacity="0.25"
     inkscape:showpageshadow="2"
     inkscape:pageopacity="0.0"
     inkscape:pagecheckerboard="0"
     inkscape:deskcolor="#d1d1d1" />
  <!-- Generator: Adobe Illustrator 29.3.1, SVG Export Plug-In . SVG Version: 2.1.0 Build 151)  -->
  <defs
     id="defs1">
    <style
       id="style1">
      .st0 {
        fill: #ff8236;
      }

      .st1 {
        fill: #fff;
      }

      .st2 {
        fill: #1b1f20;
      }
    </style>
  </defs>
  <g
     id="g7"
     transform="translate(-1040.5857,-143.99452)">
    <path
       class="st1"
       d="m 749.4,353.8 5.4,-204.1 20.4,-0.8 45.1,98.8 42.5,-99 h 19 l 6.5,205 h -38 l -2,-98 -24.9,61.4 c -1,1.3 -8,1.3 -9,-1 l -25.6,-61.4 -1.5,99 h -38 z"
       id="path1" />
    <path
       class="st1"
       d="M 727.5,240.1 C 716.7,213 674.4,215.6 652.2,225.4 l 3.1,28.4 c 9.2,-1.9 30,-8 37.5,-1 0.9,0.9 3.5,5.7 3.5,6.5 v 16.5 c -31.8,-17.2 -54.5,6.1 -54.4,38.5 0,36.5 28.4,57.3 56.4,27.5 v 12 h 32 V 249.3 c 0,-0.5 -2.4,-8 -2.8,-9.2 z m -31.1,87.7 c -8.4,1.7 -15.4,2.9 -19.2,-6.3 -5.8,-14 0.6,-37.9 19.2,-27.2 z"
       id="path2" />
    <path
       class="st1"
       d="M 899.4,353.8 947,148.7 h 30.3 c 0,0.1 47,205.1 47,205.1 h -38 l -7.9,-33.6 h -34.1 l -7.9,33.6 z m 52,-68 h 20 l -10.5,-56 z"
       id="path3" />
    <polygon
       class="st1"
       points="451.4,150.3 452.9,148.8 490.4,148.8 490.4,317.3 491.9,318.8 534.4,318.8 534.4,353.8 451.4,353.8 "
       id="polygon3" />
    <polygon
       class="st1"
       points="589.4,148.8 589.4,318.8 633.4,318.8 633.4,353.8 550.4,353.8 550.4,148.8 "
       id="polygon4" />
    <g
       id="g6">
      <path
         class="st0"
         d="m 1163.3,226.8 -13.5,24 c -17.8,-13.7 -44.2,-15.7 -62,-1 -28.7,23.7 -26.7,78.5 18,78.8 12.5,0 23.1,-5.9 34.5,-9.8 l 6,23.9 c -10.1,4.7 -20.4,9.5 -31.5,11 -101.2,13.8 -95.4,-132.3 -3.9,-139.9 19.2,-1.6 36.1,3.4 52.5,13 z"
         id="path4" />
      <path
         class="st0"
         d="m 1093.4,203.8 c -15.4,4.6 -29.7,13.1 -40.5,25 -2,-24.2 3.4,-73.1 30.3,-82.7 4,-1.4 17.7,-4.9 17.3,2.2 -0.4,7.1 -9.9,19.3 -12.2,25.9 -4,11.6 -0.3,19.6 5.2,29.7 z"
         id="path5" />
      <polygon
         class="st0"
         points="1116.4,307.8 1116.4,290.8 1099.4,290.8 1099.4,276.8 1114.9,276.8 1116.4,275.3 1116.4,258.8 1131.4,258.8 1131.4,276.8 1147.4,276.8 1147.4,290.8 1131.4,290.8 1131.4,307.8 "
         id="polygon5" />
      <polygon
         class="st0"
         points="1186.4,307.8 1171.4,307.8 1171.4,290.8 1155.4,290.8 1155.4,276.8 1171.4,276.8 1171.4,258.8 1186.4,258.8 1186.4,275.3 1187.9,276.8 1203.4,276.8 1203.4,290.8 1186.4,290.8 "
         id="polygon6" />
      <path
         class="st0"
         d="m 1142.3,156.9 c 2,3 -9.3,15.9 -11.1,19.2 -5.2,9.8 -1.7,15.4 2.2,24.7 -11.3,-1.7 -21.8,-0.3 -33,1 2.5,-21.5 14.6,-52.8 41.9,-44.9 z"
         id="path6" />
    </g>
  </g>
</svg>
