<?xml version="1.0" encoding="UTF-8" standalone="no"?>
<svg
   fill="currentColor"
   fill-rule="evenodd"
   height="22.0007"
   style="line-height:1"
   viewBox="0 0 16.999908 22.0007"
   width="16.999908"
   version="1.1"
   id="svg1"
   sodipodi:docname="ollama.svg"
   xmlns:inkscape="http://www.inkscape.org/namespaces/inkscape"
   xmlns:sodipodi="http://sodipodi.sourceforge.net/DTD/sodipodi-0.dtd"
   xmlns="http://www.w3.org/2000/svg"
   xmlns:svg="http://www.w3.org/2000/svg"
   xmlns:rdf="http://www.w3.org/1999/02/22-rdf-syntax-ns#"
   xmlns:cc="http://creativecommons.org/ns#"
   xmlns:dc="http://purl.org/dc/elements/1.1/">
  <defs
     id="defs1" />
  <sodipodi:namedview
     id="namedview1"
     pagecolor="#ffffff"
     bordercolor="#000000"
     borderopacity="0.25"
     inkscape:showpageshadow="2"
     inkscape:pageopacity="0.0"
     inkscape:pagecheckerboard="0"
     inkscape:deskcolor="#d1d1d1" />
  <title
     id="title1">Ollama</title>
  <path
     d="m 4.4051562,0.09021357 c 0.216,0.085 0.411,0.225 0.588,0.41 0.295,0.306 0.544,0.74400003 0.734,1.26300003 0.191,0.522 0.315,1.1 0.362,1.68 a 5.054,5.054 0 0 1 2.049,-0.636 l 0.051,-0.004 c 0.87,-0.07 1.73,0.087 2.4799998,0.474 0.101,0.053 0.2,0.11 0.297,0.17 0.05,-0.569 0.172,-1.134 0.36,-1.644 0.19,-0.52 0.439,-0.95700003 0.733,-1.26400003 a 1.67,1.67 0 0 1 0.589,-0.41 c 0.257,-0.1 0.53,-0.118 0.796,-0.042 0.401,0.114 0.745,0.368 1.016,0.737 0.248,0.33700003 0.434,0.76900003 0.561,1.28700003 0.23,0.934 0.27,2.163 0.115,3.645 l 0.053,0.04 0.026,0.019 c 0.757,0.576 1.284,1.397 1.563,2.35 0.435,1.487 0.216,3.1550004 -0.534,4.0880004 l -0.018,0.021 0.002,0.003 c 0.417,0.762 0.67,1.567 0.724,2.4 l 0.002,0.03 c 0.064,1.065 -0.2,2.137 -0.814,3.19 l -0.007,0.01 0.01,0.024 c 0.472,1.157 0.62,2.322 0.438,3.486 l -0.006,0.039 a 0.651,0.651 0 0 1 -0.747,0.536 0.648,0.648 0 0 1 -0.54,-0.742 c 0.167,-1.033 0.01,-2.069 -0.48,-3.123 a 0.643,0.643 0 0 1 0.04,-0.617 l 0.004,-0.006 c 0.604,-0.924 0.854,-1.83 0.8,-2.72 -0.046,-0.779 -0.325,-1.544 -0.8,-2.273 a 0.644,0.644 0 0 1 0.18,-0.886 l 0.009,-0.006 c 0.243,-0.159 0.467,-0.565 0.58,-1.12 a 4.229,4.229 0 0 0 -0.095,-1.9740004 c -0.205,-0.7 -0.58,-1.284 -1.105,-1.683 -0.595,-0.454 -1.383,-0.673 -2.38,-0.61 a 0.653,0.653 0 0 1 -0.632,-0.371 c -0.314,-0.665 -0.772,-1.141 -1.343,-1.436 a 3.288,3.288 0 0 0 -1.7719998,-0.332 c -1.245,0.099 -2.343,0.801 -2.67,1.686 a 0.652,0.652 0 0 1 -0.61,0.425 c -1.067,0.002 -1.893,0.252 -2.497,0.703 -0.522,0.39 -0.878,0.935 -1.066,1.588 a 4.07,4.07 0 0 0 -0.068,1.8860004 c 0.112,0.558 0.331,1.02 0.582,1.269 l 0.008,0.007 c 0.212,0.207 0.257,0.53 0.109,0.785 -0.36,0.622 -0.629,1.549 -0.673,2.44 -0.05,1.018 0.186,1.902 0.719,2.536 l 0.016,0.019 a 0.643,0.643 0 0 1 0.095,0.69 c -0.576,1.236 -0.753,2.252 -0.562,3.052 a 0.652,0.652 0 0 1 -1.26899993,0.298 c -0.243,-1.018 -0.078,-2.184 0.473,-3.498 l 0.014,-0.035 -0.008,-0.012 a 4.339,4.339 0 0 1 -0.598,-1.309 l -0.005,-0.019 a 5.764,5.764 0 0 1 -0.177,-1.785 c 0.044,-0.91 0.278,-1.842 0.622,-2.59 l 0.012,-0.026 -0.002,-0.002 c -0.293,-0.418 -0.51,-0.953 -0.63,-1.545 l -0.005,-0.024 a 5.352,5.352 0 0 1 0.093,-2.4900004 c 0.262,-0.915 0.777,-1.701 1.53599993,-2.269 0.06,-0.045 0.123,-0.09 0.186,-0.132 -0.159,-1.493 -0.119,-2.73 0.112,-3.67 0.127,-0.518 0.314,-0.95 0.562,-1.28700003 0.27,-0.368 0.614,-0.622 1.015,-0.737 0.266,-0.076 0.54,-0.059 0.797,0.042 z m 4.116,9.09000003 c 0.936,0 1.7999998,0.313 2.4459998,0.8550004 0.63,0.527 1.005,1.235 1.005,1.94 0,0.888 -0.406,1.58 -1.133,2.022 -0.62,0.375 -1.4509998,0.557 -2.4029998,0.557 -1.009,0 -1.871,-0.259 -2.493,-0.734 -0.617,-0.47 -0.963,-1.13 -0.963,-1.845 0,-0.707 0.398,-1.417 1.056,-1.946 0.668,-0.5370004 1.55,-0.8490004 2.485,-0.8490004 z m 0,0.8960004 a 3.07,3.07 0 0 0 -1.916,0.65 c -0.461,0.37 -0.722,0.835 -0.722,1.25 0,0.428 0.21,0.829 0.61,1.134 0.455,0.347 1.124,0.548 1.943,0.548 0.799,0 1.473,-0.147 1.9319998,-0.426 0.463,-0.28 0.7,-0.686 0.7,-1.257 0,-0.423 -0.246,-0.89 -0.683,-1.256 -0.4839998,-0.405 -1.1399998,-0.643 -1.8639998,-0.643 z m 0.662,1.21 0.004,0.004 c 0.12,0.151 0.095,0.37 -0.056,0.49 l -0.292,0.23 v 0.446 a 0.375,0.375 0 0 1 -0.376,0.373 0.375,0.375 0 0 1 -0.376,-0.373 v -0.46 l -0.271,-0.218 a 0.347,0.347 0 0 1 -0.052,-0.49 0.353,0.353 0 0 1 0.494,-0.051 l 0.215,0.172 0.22,-0.174 a 0.353,0.353 0 0 1 0.49,0.051 z m -5.04,-1.9190004 c 0.478,0 0.867,0.39 0.867,0.8710004 a 0.87,0.87 0 0 1 -0.868,0.871 0.87,0.87 0 0 1 -0.867,-0.87 0.87,0.87 0 0 1 0.867,-0.8720004 z m 8.7059998,0 c 0.48,0 0.868,0.39 0.868,0.8710004 a 0.87,0.87 0 0 1 -0.868,0.871 0.87,0.87 0 0 1 -0.867,-0.87 0.87,0.87 0 0 1 0.867,-0.8720004 z m -8.9089998,-8.067 -0.003,0.002 a 0.659,0.659 0 0 0 -0.285,0.238 l -0.005,0.006 c -0.138,0.189 -0.258,0.467 -0.348,0.832 -0.17,0.692 -0.216,1.631 -0.124,2.782 0.43,-0.128 0.899,-0.208 1.404,-0.237 l 0.01,-0.001 0.019,-0.034 c 0.046,-0.082 0.095,-0.161 0.148,-0.239 0.123,-0.771 0.022,-1.692 -0.253,-2.444 -0.134,-0.364 -0.297,-0.65 -0.453,-0.813 a 0.628,0.628 0 0 0 -0.107,-0.09 z m 9.1739998,0.04 -0.002,10e-4 a 0.628,0.628 0 0 0 -0.107,0.09 c -0.156,0.163 -0.32,0.45 -0.453,0.814 -0.29,0.794 -0.387,1.776 -0.23,2.572 l 0.058,0.097 0.008,0.014 h 0.03 a 5.184,5.184 0 0 1 1.466,0.212 c 0.086,-1.124 0.038,-2.043 -0.128,-2.722 -0.09,-0.365 -0.21,-0.643 -0.349,-0.832 l -0.004,-0.006 a 0.659,0.659 0 0 0 -0.285,-0.239 h -0.004 z"
     id="path1" />
  <metadata
     id="metadata1">
    <rdf:RDF>
      <cc:Work
         rdf:about="">
        <dc:title>Ollama</dc:title>
      </cc:Work>
    </rdf:RDF>
  </metadata>
</svg>
